# xmcd CD database file
#
# Track frame offsets:
#	150
#	16535
#	35441
#	50342
#	66659
#	94904
#	109278
#	152848
#	166365
#
# Disc length: 2576 seconds
#
# Revision: 0
# Processed by: cddbd v1.5.1PL2 Copyright (c) Steve Scherf et al.
# Submitted via: CDex 1.51
#
DISCID=710a0e09
DTITLE=The Original Contemporaries - 69°
DYEAR=2005
DGENRE=Blues
TTITLE0=01 Hound Dog
TTITLE1=02 Cow Cow Blues
TTITLE2=03 You are my Sunshine
TTITLE3=04 Big Boss Man
TTITLE4=05 St. Louis Blues
TTITLE5=06 Disco Strut
TTITLE6=07 Suitecase Blues
TTITLE7=08  Maple Leaf Rag
TTITLE8=09 Weeping Willow
EXTD=YEAR: 2005
EXTT0=
EXTT1=
EXTT2=
EXTT3=
EXTT4=
EXTT5=
EXTT6=
EXTT7=
EXTT8=
PLAYORDER=
